<?xml version="1.0" encoding="utf-8"?>
<!-- Generator: Adobe Illustrator 23.0.6, SVG Export Plug-In . SVG Version: 6.00 Build 0)  -->
<svg version="1.1" id="Layer_1" xmlns="http://www.w3.org/2000/svg" xmlns:xlink="http://www.w3.org/1999/xlink" x="0px" y="0px"
	 viewBox="0 0 30 14.6" style="enable-background:new 0 0 30 14.6;" xml:space="preserve">
<style type="text/css">
	.st0{fill:#00AFE5;}
	.st1{fill:#F94B79;}
</style>
<g>
	<path d="M2.7,0.8v5.7c0.6-0.6,1.3-1,2.1-1c0.9,0,1.7,0.3,2.2,1S7.9,8,7.9,9c0,1-0.3,1.9-0.9,2.6c-0.6,0.7-1.4,1-2.3,1
		c-0.8,0-1.5-0.3-2.1-0.9l0,0.9H1.1l0-11.8H2.7z M6.3,9.1c0-0.6-0.2-1.2-0.5-1.6C5.5,7.1,5,6.9,4.5,6.9c-0.6,0-1,0.2-1.4,0.6
		C2.8,7.9,2.6,8.4,2.6,9c0,0.6,0.2,1.2,0.5,1.6c0.3,0.4,0.8,0.6,1.4,0.6c0.5,0,1-0.2,1.3-0.6C6.2,10.2,6.3,9.6,6.3,9.1z"/>
	<path d="M8.4,8.9c0-1,0.4-1.8,1-2.5s1.5-1,2.5-1s1.8,0.3,2.5,1c0.7,0.7,1,1.5,1,2.5c0,1-0.4,1.8-1,2.5c-0.7,0.7-1.6,1-2.6,1
		c-1,0-1.8-0.3-2.5-1C8.7,10.8,8.4,10,8.4,8.9z M9.9,9c0,0.7,0.2,1.2,0.5,1.6c0.4,0.4,0.9,0.6,1.4,0.6c0.6,0,1.1-0.2,1.4-0.6
		s0.5-0.9,0.5-1.6s-0.2-1.2-0.5-1.6c-0.4-0.4-0.8-0.6-1.4-0.6c-0.6,0-1.1,0.2-1.4,0.6C10.1,7.8,9.9,8.4,9.9,9z"/>
	<path class="st0" d="M17.6,5.7l0,6.8l-1.4,0L16,5.7L17.6,5.7L17.6,5.7z"/>
	<path d="M20.7,7.2v5.3h-1.5V7.2h-0.7V5.8h0.7V3.3h1.5v2.4H22v1.4L20.7,7.2L20.7,7.2z"/>
	<path d="M28.7,9.4h-4.8c0,0.6,0.2,1,0.5,1.3c0.3,0.3,0.7,0.5,1.2,0.5c0.4,0,0.7-0.1,1-0.3s0.5-0.5,0.8-1l1.3,0.7
		c-0.2,0.3-0.4,0.6-0.6,0.9c-0.2,0.2-0.5,0.4-0.7,0.6s-0.5,0.3-0.8,0.4c-0.3,0.1-0.6,0.1-1,0.1c-1,0-1.8-0.3-2.4-1
		c-0.6-0.6-0.9-1.5-0.9-2.6c0-1.1,0.3-1.9,0.9-2.6c0.6-0.7,1.4-1,2.4-1s1.8,0.3,2.3,0.9c0.6,0.6,0.9,1.5,0.9,2.6L28.7,9.4z
		 M27.1,8.1c-0.2-0.8-0.7-1.2-1.6-1.2c-0.2,0-0.4,0-0.5,0.1c-0.2,0.1-0.3,0.1-0.5,0.2c-0.1,0.1-0.2,0.2-0.4,0.4S24.1,7.9,24,8.1
		L27.1,8.1L27.1,8.1z"/>
</g>
<g>
	<g>
		<path class="st1" d="M14.8,1.5c-0.3,0.6,1.1,3.4,1.1,3.4l1.7,0c0,0,1.6-2.8,1.2-3.4C18.4,0.5,15.3,0.6,14.8,1.5z"/>
	</g>
</g>
</svg>
